<svg width="24" height="24" viewBox="0 0 24 24" fill="none" xmlns="http://www.w3.org/2000/svg">
<path d="M17.5781 0.75V10.0781H18.4219V9.42188H20.5781V10.0781H21.4219V0.75H20.5781V2.57812H18.4219V0.75H17.5781ZM18.4219 3.42188H20.5781V5.57812H18.4219V3.42188ZM18.4219 6.42188H20.5781V8.57812H18.4219V6.42188ZM1.17188 10.9219V13.0781H22.8281V10.9219H1.17188ZM2.57812 13.9219V23.25H3.42188V21.4219H5.57812V23.25H6.42188V13.9219H5.57812V14.5781H3.42188V13.9219H2.57812ZM3.42188 15.4219H5.57812V17.5781H3.42188V15.4219ZM3.42188 18.4219H5.57812V20.5781H3.42188V18.4219Z" fill="black"/>
</svg>
