<svg width="24" height="24" viewBox="0 0 24 24" fill="none" xmlns="http://www.w3.org/2000/svg">
<path d="M12.9993 2.09V2C12.9993 1.45 12.5493 1 11.9993 1C11.4493 1 10.9993 1.45 10.9993 2V2.09C9.60935 2.32413 8.34736 3.04331 7.43746 4.11982C6.52756 5.19632 6.02864 6.56047 6.0293 7.97V16C6.0293 19 8.1893 21.44 10.9993 21.91V22C10.9993 22.55 11.4493 23 11.9993 23C12.5493 23 12.9993 22.55 12.9993 22V21.91C14.3936 21.6735 15.6587 20.9495 16.5689 19.8671C17.4792 18.7847 17.9755 17.4142 17.9693 16V7.97C17.9993 5 15.8093 2.56 12.9993 2.09ZM15.9993 8H14.9993V5.4C15.5993 6.09 15.9993 7 15.9993 8ZM13.9993 19.44C13.4093 19.79 12.7293 20 11.9993 20C11.2693 20 10.5893 19.79 9.9993 19.44V16H13.9993V19.44M9.9993 15V9H13.9993V15H9.9993ZM8.9993 15H8.0293V9H8.9993V15ZM9.9993 4.56C10.5893 4.21 11.2693 4 11.9993 4C12.7293 4 13.4093 4.21 13.9993 4.56V8H9.9993V4.56M14.9993 9H15.9993V15H14.9993V9ZM8.9993 5.4V8H8.0293V7.97C8.0293 7 8.3993 6.09 8.9993 5.4ZM8.0293 16H8.9993V18.6C8.3993 17.91 8.0293 17 8.0293 16.03V16ZM14.9993 18.6V16H15.9993C15.9993 17 15.5993 17.91 14.9993 18.6Z" fill="black"/>
</svg>
