<svg width="24" height="24" viewBox="0 0 24 24" fill="none" xmlns="http://www.w3.org/2000/svg">
<path d="M1.5 12C1.5 14.9 2.68 17.5 4.58 19.42L3.5 20.5C1.34 18.31 0 15.31 0 12C0 8.69 1.34 5.69 3.5 3.5L4.58 4.58C2.68 6.5 1.5 9.11 1.5 12ZM21 12C20.9999 14.3871 20.0515 16.6763 18.3635 18.3642C16.6754 20.052 14.3861 21.0001 11.999 21C9.61192 20.9999 7.32266 20.0515 5.63483 18.3635C3.947 16.6754 2.99887 14.3861 2.999 11.999C2.99913 9.61192 3.94752 7.32266 5.63554 5.63483C7.32355 3.94701 9.61292 2.99887 12 2.999C14.3871 2.99913 16.6763 3.94752 18.3642 5.63554C20.052 7.32355 21.0001 9.61292 21 12M5 12C5 12.44 5.05 12.86 5.12 13.28C5.3 13.09 5.46 13 5.78 13C6.3 13 6.39 13.21 6.78 13.71C7.17 14.21 7.85 15 8.89 15C9.92 15 10.61 14.21 11 13.71C11.26 13.37 11.39 13.18 11.61 13.08C11.71 13.03 11.83 13 12 13C12.5 13 12.61 13.21 13 13.71C13.39 14.21 14.08 15 15.11 15C16.15 15 16.83 14.21 17.22 13.71C17.61 13.21 17.7 13 18.22 13C18.54 13 18.7 13.09 18.88 13.28C18.95 12.86 19 12.44 19 12C19 8.14 15.86 5 12 5C8.14 5 5 8.14 5 12ZM20.5 3.5L19.42 4.58C21.32 6.5 22.5 9.11 22.5 12C22.5 14.9 21.32 17.5 19.42 19.42L20.5 20.5C22.66 18.31 24 15.31 24 12C24 8.69 22.66 5.69 20.5 3.5Z" fill="black"/>
</svg>
