<svg width="35" height="35" viewBox="0 0 35 35" fill="none" xmlns="http://www.w3.org/2000/svg">
<path d="M12.3958 8.75C11.5938 8.75 10.9074 8.46417 10.3367 7.8925C9.765 7.3218 9.47917 6.63542 9.47917 5.83333C9.47917 5.03125 9.765 4.34437 10.3367 3.77271C10.9074 3.20201 11.5938 2.91667 12.3958 2.91667C13.1979 2.91667 13.8848 3.20201 14.4565 3.77271C15.0272 4.34437 15.3125 5.03125 15.3125 5.83333C15.3125 6.63542 15.0272 7.3218 14.4565 7.8925C13.8848 8.46417 13.1979 8.75 12.3958 8.75ZM20.4167 29.1667H11.0104C10.2083 29.1667 9.47333 28.8813 8.80542 28.3106C8.13653 27.739 7.71701 27.0521 7.54688 26.25L4.375 10.2083H7.36458L10.5729 26.25H20.4167V29.1667ZM28.4375 32.0833L24.2083 24.7917H14.0729C13.3681 24.7917 12.7546 24.5787 12.2325 24.1529C11.7094 23.7281 11.375 23.1632 11.2292 22.4583L9.625 14.6562C9.35764 13.4896 9.63083 12.4566 10.4446 11.5573C11.2593 10.658 12.25 10.2083 13.4167 10.2083C14.2674 10.2083 15.0393 10.4635 15.7325 10.974C16.4247 11.4844 16.8681 12.1771 17.0625 13.0521L18.6667 20.4167H23.4062C23.9167 20.4167 24.3906 20.5503 24.8281 20.8177C25.2656 21.0851 25.6181 21.4375 25.8854 21.875L30.9896 30.625L28.4375 32.0833Z" fill="black"/>
</svg>
