<svg width="24" height="24" viewBox="0 0 24 24" fill="none" xmlns="http://www.w3.org/2000/svg">
<mask id="mask0_3178_3582" style="mask-type:alpha" maskUnits="userSpaceOnUse" x="0" y="0" width="24" height="24">
<rect width="24" height="24" fill="#D9D9D9"/>
</mask>
<g mask="url(#mask0_3178_3582)">
<path d="M2 6.99998V1.99998H7V3.99998H4V6.99998H2ZM2 22V17H4V20H7V22H2ZM17 22V20H20V17H22V22H17ZM20 6.99998V3.99998H17V1.99998H22V6.99998H20ZM17.5 17.5H19V19H17.5V17.5ZM17.5 14.5H19V16H17.5V14.5ZM16 16H17.5V17.5H16V16ZM14.5 17.5H16V19H14.5V17.5ZM13 16H14.5V17.5H13V16ZM16 13H17.5V14.5H16V13ZM14.5 14.5H16V16H14.5V14.5ZM13 13H14.5V14.5H13V13ZM19 4.99998V11H13V4.99998H19ZM11 13V19H5V13H11ZM11 4.99998V11H5V4.99998H11ZM9.5 17.5V14.5H6.5V17.5H9.5ZM9.5 9.49998V6.49998H6.5V9.49998H9.5ZM17.5 9.49998V6.49998H14.5V9.49998H17.5Z" fill="black"/>
</g>
</svg>
