<svg width="26" height="26" viewBox="0 0 26 26" fill="none" xmlns="http://www.w3.org/2000/svg">
<mask id="mask0_3178_3579" style="mask-type:alpha" maskUnits="userSpaceOnUse" x="0" y="0" width="26" height="26">
<rect width="26" height="26" fill="#D9D9D9"/>
</mask>
<g mask="url(#mask0_3178_3579)">
<path d="M6.50065 20.5833C5.59787 20.5833 4.83051 20.2674 4.19857 19.6354C3.56662 19.0035 3.25065 18.2361 3.25065 17.3333H1.08398V7.58333C1.08398 6.9875 1.29632 6.47761 1.72098 6.05366C2.14493 5.629 2.65482 5.41666 3.25065 5.41666H18.4173L24.9173 11.9167V17.3333H22.7507C22.7507 18.2361 22.4347 19.0035 21.8027 19.6354C21.1708 20.2674 20.4034 20.5833 19.5007 20.5833C18.5979 20.5833 17.8305 20.2674 17.1986 19.6354C16.5666 19.0035 16.2507 18.2361 16.2507 17.3333H9.75065C9.75065 18.2361 9.43468 19.0035 8.80273 19.6354C8.17079 20.2674 7.40343 20.5833 6.50065 20.5833ZM16.2507 10.8333H20.584L17.334 7.58333H16.2507V10.8333ZM9.75065 10.8333H14.084V7.58333H9.75065V10.8333ZM3.25065 10.8333H7.58398V7.58333H3.25065V10.8333ZM6.50065 18.6875C6.87982 18.6875 7.20048 18.5564 7.46265 18.2942C7.7241 18.0328 7.85482 17.7125 7.85482 17.3333C7.85482 16.9542 7.7241 16.6339 7.46265 16.3724C7.20048 16.1102 6.87982 15.9792 6.50065 15.9792C6.12148 15.9792 5.80118 16.1102 5.53973 16.3724C5.27757 16.6339 5.14648 16.9542 5.14648 17.3333C5.14648 17.7125 5.27757 18.0328 5.53973 18.2942C5.80118 18.5564 6.12148 18.6875 6.50065 18.6875ZM19.5007 18.6875C19.8798 18.6875 20.2005 18.5564 20.4627 18.2942C20.7241 18.0328 20.8548 17.7125 20.8548 17.3333C20.8548 16.9542 20.7241 16.6339 20.4627 16.3724C20.2005 16.1102 19.8798 15.9792 19.5007 15.9792C19.1215 15.9792 18.8012 16.1102 18.5397 16.3724C18.2776 16.6339 18.1465 16.9542 18.1465 17.3333C18.1465 17.7125 18.2776 18.0328 18.5397 18.2942C18.8012 18.5564 19.1215 18.6875 19.5007 18.6875ZM3.25065 15.1667H4.11732C4.42426 14.8417 4.77635 14.5799 5.17357 14.3812C5.57079 14.1826 6.01315 14.0833 6.50065 14.0833C6.98815 14.0833 7.43051 14.1826 7.82773 14.3812C8.22496 14.5799 8.57704 14.8417 8.88398 15.1667H17.1173C17.4243 14.8417 17.7763 14.5799 18.1736 14.3812C18.5708 14.1826 19.0132 14.0833 19.5007 14.0833C19.9882 14.0833 20.4305 14.1826 20.8277 14.3812C21.225 14.5799 21.577 14.8417 21.884 15.1667H22.7507V13H3.25065V15.1667Z" fill="black"/>
</g>
</svg>
