<svg width="35" height="35" viewBox="0 0 35 35" fill="none" xmlns="http://www.w3.org/2000/svg">
<g clip-path="url(#clip0_3178_3492)">
<path fill-rule="evenodd" clip-rule="evenodd" d="M30.625 4.99625C30.625 3.62979 29.1594 2.71687 27.9256 3.395C26.2675 4.305 21.3587 6.95625 18.4202 8.12437C15.0004 9.48208 12.056 9.9925 8.68146 10.15C6.34375 10.2579 4.375 12.1465 4.375 14.5833V20.4167C4.375 22.8535 6.34375 24.7421 8.68146 24.85C9.08104 24.869 9.47333 24.8923 9.86271 24.9215L8.77771 30.3392C8.7019 30.7186 8.77992 31.1126 8.99461 31.4345C9.2093 31.7564 9.54307 31.9798 9.9225 32.0556C10.3019 32.1314 10.6959 32.0534 11.0178 31.8387C11.3397 31.624 11.5632 31.2903 11.639 30.9108L12.7662 25.27C14.6081 25.5835 16.434 26.0867 18.4202 26.8756C21.3587 28.0437 26.266 30.6965 27.9256 31.605C29.1594 32.2831 30.625 31.3702 30.625 30.0037V4.99625ZM13.125 22.3737C15.1929 22.7165 17.2565 23.275 19.4979 24.166C21.9071 25.1227 25.4567 26.9646 27.7083 28.1706V6.82937C25.4567 8.03541 21.9071 9.87729 19.4979 10.834C17.2565 11.7235 15.1929 12.2835 13.125 12.6277V22.3737ZM10.2083 12.9777C9.74896 13.0127 9.28667 13.0419 8.81708 13.0637C7.93771 13.1046 7.29167 13.7987 7.29167 14.5833V20.4167C7.29167 21.2012 7.93771 21.8954 8.81708 21.9362C9.28667 21.9581 9.75042 21.9873 10.2083 22.0237V12.9762V12.9777Z" fill="black"/>
</g>
<defs>
<clipPath id="clip0_3178_3492">
<rect width="35" height="35" fill="white"/>
</clipPath>
</defs>
</svg>
