<svg width="24" height="24" viewBox="0 0 24 24" fill="none" xmlns="http://www.w3.org/2000/svg">
<path d="M13 4.79999C9 4.79999 9 19.2 13 19.2C17 19.2 22 16.5 22 12C22 7.49999 17 4.79999 13 4.79999ZM13.1 17.2C12.7 16.8 12 15 12 12C12 8.99999 12.7 7.19999 13.1 6.79999C16 6.89999 20 8.69999 20 12C20 15.3 16 17.1 13.1 17.2ZM2 4.99999H9.5C9.3 5.39999 9 5.79999 8.9 6.39999C8.8 6.59999 8.8 6.79999 8.7 6.99999H2V4.99999ZM8 11H2V8.99999H8.2C8.1 9.59999 8.1 10.3 8 11M8.7 17C8.9 17.8 9.2 18.4 9.6 19H2.1V17H8.7ZM8.2 15H2V13H8C8.1 13.7 8.1 14.4 8.2 15Z" fill="black"/>
</svg>
