<svg width="24" height="24" viewBox="0 0 24 24" fill="none" xmlns="http://www.w3.org/2000/svg">
<path fill-rule="evenodd" clip-rule="evenodd" d="M16.3402 4.28101C16.0918 4.03296 15.7769 3.8621 15.4336 3.78904C15.0902 3.71597 14.7331 3.74384 14.4052 3.86926L14.4007 3.87151L10.6357 5.31901L10.6297 5.32126C10.2479 5.46982 9.90076 5.69523 9.60972 5.98351L1.28472 14.3085C1.11509 14.4769 0.980495 14.6771 0.888717 14.8978C0.796938 15.1185 0.749791 15.3551 0.750001 15.5941C0.75021 15.8331 0.797771 16.0697 0.889936 16.2902C0.982101 16.5107 1.11704 16.7107 1.28697 16.8788L7.28472 22.8765C7.45306 23.0461 7.65335 23.1807 7.87401 23.2725C8.09467 23.3643 8.33132 23.4114 8.57031 23.4112C8.8093 23.411 9.04587 23.3635 9.26637 23.2713C9.48687 23.1791 9.68692 23.0442 9.85497 22.8743L18.1777 14.5515C18.4702 14.259 18.693 13.914 18.8422 13.5255L19.26 12.4403C19.365 12.4343 19.47 12.4238 19.5735 12.4088C19.6039 12.4049 19.6339 12.3989 19.6635 12.3908C20.2227 12.2962 20.7547 12.081 21.2225 11.7602C21.6902 11.4394 22.0826 11.0206 22.3723 10.533C22.6619 10.0453 22.842 9.50048 22.9 8.93625C22.958 8.37202 22.8926 7.80193 22.7081 7.26554C22.5237 6.72916 22.2248 6.23933 21.8321 5.83007C21.4394 5.4208 20.9623 5.1019 20.434 4.8955C19.9057 4.68911 19.3388 4.60015 18.7726 4.63482C18.2065 4.66949 17.6547 4.82695 17.1555 5.09626L16.3402 4.28101ZM18.2962 6.23701L19.8802 7.82101C20.394 8.33401 20.5447 9.09901 20.2897 9.76051L19.8997 10.7745C20.477 10.5436 20.9426 10.0985 21.1991 9.53215C21.4556 8.96583 21.4832 8.32224 21.276 7.73606C21.0689 7.14987 20.6431 6.66651 20.0877 6.38712C19.5323 6.10772 18.8904 6.05393 18.2962 6.23701V6.23701ZM18.1785 10.8008L18.2707 10.8323L18.8902 9.22201C18.9122 9.16445 18.9173 9.10179 18.9048 9.04145C18.8923 8.9811 18.8628 8.9256 18.8197 8.88151L15.2797 5.34151C15.2355 5.29772 15.1793 5.26785 15.1183 5.25559C15.0573 5.24332 14.994 5.24921 14.9362 5.27251H14.9347L11.1772 6.71776C10.9878 6.79085 10.8152 6.90187 10.6702 7.04401L2.34522 15.369C2.31549 15.3976 2.29175 15.4317 2.2754 15.4696C2.25905 15.5074 2.25041 15.5481 2.24999 15.5893C2.24957 15.6305 2.25738 15.6714 2.27296 15.7096C2.28854 15.7477 2.31157 15.7824 2.34072 15.8115L2.34522 15.816L8.34522 21.816C8.37376 21.8457 8.40794 21.8695 8.44577 21.8858C8.4836 21.9022 8.52431 21.9108 8.56552 21.9112C8.60673 21.9117 8.64761 21.9039 8.68576 21.8883C8.72392 21.8727 8.75858 21.8497 8.78772 21.8205L8.79222 21.816L17.1172 13.491C17.2597 13.3485 17.367 13.1835 17.4427 12.987L17.7322 12.234C17.5595 12.1747 17.3911 12.1035 17.2282 12.021C16.5554 11.6793 15.9964 11.1493 15.6195 10.4955C15.2656 10.555 14.9019 10.5006 14.581 10.3399C14.26 10.1793 13.9985 9.92077 13.834 9.60176C13.6696 9.28276 13.6108 8.91975 13.6662 8.56515C13.7215 8.21056 13.8881 7.88273 14.142 7.62901C14.2992 7.47105 14.4861 7.3457 14.6919 7.26017C14.8977 7.17464 15.1183 7.13061 15.3412 7.13061C15.5641 7.13061 15.7848 7.17464 15.9906 7.26017C16.1964 7.3457 16.3832 7.47105 16.5405 7.62901C17.0775 8.16601 17.1802 8.96926 16.848 9.60826C17.1227 10.1612 17.5988 10.588 18.1785 10.8008V10.8008ZM15.15 7.90051C14.9694 7.93841 14.8038 8.02836 14.6737 8.15926C14.5441 8.28821 14.4549 8.45207 14.4168 8.63088C14.3787 8.80968 14.3935 8.9957 14.4594 9.16624C14.5252 9.33679 14.6392 9.4845 14.7876 9.59135C14.9359 9.6982 15.1121 9.75959 15.2947 9.76801C15.0968 9.16625 15.0471 8.52559 15.15 7.90051V7.90051Z" fill="black"/>
<path d="M16.3402 4.28101C16.0918 4.03296 15.7769 3.8621 15.4336 3.78904C15.0902 3.71597 14.7331 3.74384 14.4052 3.86926L14.4007 3.87151L10.6357 5.31901L10.6297 5.32126C10.2479 5.46982 9.90076 5.69523 9.60972 5.98351L1.28472 14.3085C1.11509 14.4769 0.980495 14.6771 0.888717 14.8978C0.796938 15.1185 0.749791 15.3551 0.750001 15.5941C0.75021 15.8331 0.797771 16.0697 0.889936 16.2902C0.982101 16.5107 1.11704 16.7107 1.28697 16.8788L7.28472 22.8765C7.45306 23.0461 7.65335 23.1807 7.87401 23.2725C8.09467 23.3643 8.33132 23.4114 8.57031 23.4112C8.8093 23.411 9.04587 23.3635 9.26637 23.2713C9.48687 23.1791 9.68692 23.0442 9.85497 22.8743L18.1777 14.5515C18.4702 14.259 18.693 13.914 18.8422 13.5255L19.26 12.4403C19.365 12.4343 19.47 12.4238 19.5735 12.4088C19.6039 12.4049 19.6339 12.3989 19.6635 12.3908C20.2227 12.2962 20.7547 12.081 21.2225 11.7602C21.6902 11.4394 22.0826 11.0206 22.3723 10.533C22.6619 10.0453 22.842 9.50048 22.9 8.93625C22.958 8.37202 22.8926 7.80193 22.7081 7.26554C22.5237 6.72916 22.2248 6.23933 21.8321 5.83007C21.4394 5.4208 20.9623 5.1019 20.434 4.8955C19.9057 4.68911 19.3388 4.60015 18.7726 4.63482C18.2065 4.66949 17.6547 4.82695 17.1555 5.09626L16.3402 4.28101ZM18.2962 6.23701C18.892 6.04786 19.5379 6.09782 20.0975 6.37635C20.6571 6.65487 21.0864 7.14011 21.2947 7.72946C21.503 8.31881 21.4739 8.96606 21.2135 9.53433C20.9532 10.1026 20.482 10.5473 19.8997 10.7745L20.2897 9.76051C20.416 9.43221 20.4445 9.07436 20.3719 8.73019C20.2992 8.38602 20.1284 8.07025 19.8802 7.82101L18.2962 6.23701V6.23701ZM18.1785 10.8008C17.5985 10.5881 17.1221 10.1614 16.8472 9.60826C17.0135 9.28851 17.0734 8.924 17.0181 8.56785C16.9628 8.2117 16.7952 7.88252 16.5397 7.62826C16.3825 7.47041 16.1957 7.34516 15.9899 7.25969C15.7842 7.17423 15.5636 7.13023 15.3408 7.13023C15.1181 7.13023 14.8975 7.17423 14.6917 7.25969C14.486 7.34516 14.2992 7.47041 14.142 7.62826C13.8873 7.88174 13.7199 8.20971 13.6641 8.56467C13.6083 8.91963 13.6669 9.28314 13.8315 9.60254C13.9961 9.92195 14.2581 10.1807 14.5796 10.3412C14.901 10.5018 15.2652 10.5558 15.6195 10.4955C16.09 11.3117 16.8407 11.9295 17.7322 12.234L17.4427 12.987C17.3712 13.1762 17.2603 13.348 17.1172 13.491L8.79222 21.816L8.78772 21.8205C8.75858 21.8497 8.72392 21.8727 8.68576 21.8883C8.64761 21.9039 8.60673 21.9117 8.56552 21.9112C8.52431 21.9108 8.4836 21.9022 8.44577 21.8858C8.40794 21.8695 8.37376 21.8457 8.34522 21.816L2.34522 15.816L2.34072 15.8115C2.31157 15.7824 2.28854 15.7477 2.27296 15.7096C2.25738 15.6714 2.24957 15.6305 2.24999 15.5893C2.25041 15.5481 2.25905 15.5074 2.2754 15.4696C2.29175 15.4317 2.31549 15.3976 2.34522 15.369L10.6702 7.04401C10.8075 6.90676 10.98 6.79651 11.1772 6.71776L14.9347 5.27326L14.9362 5.27251C14.994 5.24921 15.0573 5.24332 15.1183 5.25559C15.1793 5.26785 15.2355 5.29772 15.2797 5.34151L18.8197 8.88151C18.8628 8.9256 18.8923 8.9811 18.9048 9.04145C18.9173 9.10179 18.9122 9.16445 18.8902 9.22201L18.2707 10.8323C18.2398 10.8224 18.209 10.8119 18.1785 10.8008V10.8008ZM15.15 7.90051C15.0472 8.52559 15.0969 9.16623 15.2947 9.76801C15.1121 9.75959 14.9359 9.6982 14.7876 9.59135C14.6392 9.4845 14.5252 9.33679 14.4594 9.16624C14.3935 8.9957 14.3787 8.80968 14.4168 8.63088C14.4549 8.45207 14.5441 8.28821 14.6737 8.15926C14.8038 8.02836 14.9694 7.93841 15.15 7.90051V7.90051Z" fill="black"/>
</svg>
