<svg width="35" height="35" viewBox="0 0 35 35" fill="none" xmlns="http://www.w3.org/2000/svg">
<mask id="mask0_3178_3502" style="mask-type:alpha" maskUnits="userSpaceOnUse" x="4" y="1" width="30" height="30">
<path d="M17.5007 29.1666C23.9443 29.1666 29.1673 23.9436 29.1673 17.5C29.1673 11.0563 23.9443 5.83331 17.5007 5.83331C11.057 5.83331 5.83398 11.0563 5.83398 17.5C5.83398 23.9436 11.057 29.1666 17.5007 29.1666Z" stroke="white" stroke-width="2.08333" stroke-linecap="round" stroke-linejoin="round"/>
<path d="M17.5007 20.4167C18.2742 20.4167 19.0161 20.1094 19.563 19.5624C20.11 19.0154 20.4173 18.2735 20.4173 17.5C20.4173 16.7264 20.11 15.9846 19.563 15.4376C19.0161 14.8906 18.2742 14.5833 17.5007 14.5833C16.7271 14.5833 15.9852 14.8906 15.4383 15.4376C14.8913 15.9846 14.584 16.7264 14.584 17.5C14.584 18.2735 14.8913 19.0154 15.4383 19.5624C15.9852 20.1094 16.7271 20.4167 17.5007 20.4167ZM17.5007 2.91666C19.4158 2.91666 21.3121 3.29387 23.0815 4.02675C24.8508 4.75963 26.4584 5.83383 27.8126 7.18802C29.1668 8.5422 30.241 10.1499 30.9739 11.9192C31.7068 13.6885 32.084 15.5849 32.084 17.5H26.255C26.255 15.1782 25.3327 12.9515 23.6909 11.3097C22.0492 9.66795 19.8225 8.74562 17.5007 8.74562V2.91666Z" fill="white" stroke="white" stroke-width="2.08333" stroke-linecap="round" stroke-linejoin="round"/>
</mask>
<g mask="url(#mask0_3178_3502)">
<path d="M0 0H35V35H0V0Z" fill="black"/>
</g>
</svg>
