<svg width="24" height="24" viewBox="0 0 24 24" fill="none" xmlns="http://www.w3.org/2000/svg">
<g clip-path="url(#clip0_3178_3542)">
<path d="M12 0.984375C9.07847 0.984375 6.27661 2.14495 4.21078 4.21078C2.14495 6.27661 0.984375 9.07847 0.984375 12C0.984375 14.9215 2.14495 17.7234 4.21078 19.7892C6.27661 21.8551 9.07847 23.0156 12 23.0156C13.4466 23.0156 14.879 22.7307 16.2155 22.1771C17.552 21.6235 18.7663 20.8121 19.7892 19.7892C20.8121 18.7663 21.6235 17.552 22.1771 16.2155C22.7307 14.879 23.0156 13.4466 23.0156 12C23.0156 10.5534 22.7307 9.12098 22.1771 7.7845C21.6235 6.44803 20.8121 5.23367 19.7892 4.21078C18.7663 3.18788 17.552 2.37648 16.2155 1.82289C14.879 1.2693 13.4466 0.984375 12 0.984375V0.984375ZM12 4.82812C15.9559 4.82812 19.1719 8.04408 19.1719 12C19.1719 15.9559 15.9559 19.1719 12 19.1719C8.04408 19.1719 4.82812 15.9559 4.82812 12C4.82812 8.04408 8.04408 4.82812 12 4.82812ZM12 5.67188C11.043 5.67188 10.1364 5.88375 9.32391 6.26259C9.86517 7.80384 10.7915 9.75 12 9.75C13.2105 9.75 14.1059 7.79766 14.6603 6.25523C13.8518 5.88103 12.9508 5.67188 12 5.67188ZM16.629 7.68188C15.3299 8.67295 13.763 10.1564 14.1367 11.3066C14.5108 12.458 16.6448 12.7062 18.2832 12.7567C18.3126 12.5085 18.3281 12.2562 18.3281 12C18.3281 10.3293 17.6834 8.81194 16.629 7.68188V7.68188ZM7.36045 7.69327C6.31233 8.82206 5.67188 10.3349 5.67188 12C5.67188 12.2602 5.68781 12.5165 5.71819 12.7683C7.35098 12.7296 9.48605 12.4499 9.85931 11.3011C10.2331 10.1507 8.65556 8.69705 7.36045 7.69327ZM10.6505 9.73903C10.5655 9.74142 10.4833 9.76943 10.4145 9.81937C10.324 9.88515 10.2633 9.98417 10.2458 10.0947C10.2284 10.2052 10.2555 10.3181 10.3212 10.4086C10.387 10.4991 10.486 10.5598 10.5965 10.5773C10.707 10.5948 10.8199 10.5678 10.9104 10.502C10.9553 10.4695 10.9932 10.4284 11.0222 10.3811C11.0512 10.3339 11.0705 10.2814 11.0792 10.2267C11.0879 10.172 11.0857 10.1161 11.0727 10.0622C11.0598 10.0083 11.0364 9.95753 11.0038 9.9127C10.9635 9.85721 10.9102 9.81239 10.8487 9.78213C10.7871 9.75187 10.7191 9.73707 10.6505 9.73903V9.73903ZM13.3495 9.73903C13.3395 9.73874 13.3296 9.7388 13.3196 9.73922C13.2561 9.7419 13.1941 9.75889 13.1381 9.78892C13.0821 9.81896 13.0336 9.86125 12.9962 9.91266C12.9636 9.95748 12.9402 10.0083 12.9273 10.0622C12.9143 10.116 12.9121 10.1719 12.9208 10.2267C12.9295 10.2814 12.9488 10.3339 12.9778 10.3811C13.0067 10.4284 13.0447 10.4695 13.0896 10.502C13.1801 10.5678 13.293 10.5949 13.4035 10.5773C13.514 10.5598 13.613 10.4992 13.6788 10.4086C13.7445 10.3181 13.7716 10.2052 13.7542 10.0947C13.7367 9.98422 13.676 9.8852 13.5855 9.81942C13.5167 9.76946 13.4345 9.74144 13.3495 9.73903V9.73903ZM12 10.5C11.6022 10.5 11.2206 10.658 10.9393 10.9393C10.658 11.2206 10.5 11.6022 10.5 12C10.5 12.3978 10.658 12.7794 10.9393 13.0607C11.2206 13.342 11.6022 13.5 12 13.5C12.3978 13.5 12.7794 13.342 13.0607 13.0607C13.342 12.7794 13.5 12.3978 13.5 12C13.5 11.6022 13.342 11.2206 13.0607 10.9393C12.7794 10.658 12.3978 10.5 12 10.5V10.5ZM9.82983 12.283C9.78759 12.2836 9.74569 12.2905 9.70552 12.3036C9.65282 12.3207 9.60401 12.348 9.56187 12.384C9.51973 12.42 9.48509 12.4639 9.45993 12.5133C9.43478 12.5627 9.41959 12.6165 9.41524 12.6717C9.41088 12.727 9.41746 12.7825 9.43458 12.8352C9.46916 12.9416 9.54458 13.0299 9.64427 13.0807C9.74396 13.1315 9.85973 13.1406 9.96614 13.1061C10.0188 13.089 10.0676 13.0616 10.1098 13.0257C10.1519 12.9897 10.1865 12.9458 10.2117 12.8964C10.2369 12.847 10.2521 12.7932 10.2564 12.738C10.2608 12.6827 10.2542 12.6272 10.2371 12.5745C10.2092 12.4888 10.1547 12.4142 10.0814 12.3618C10.0081 12.3093 9.91995 12.2817 9.82983 12.283V12.283ZM14.1825 12.2834C14.0903 12.2794 13.9994 12.3057 13.9236 12.3582C13.8479 12.4108 13.7914 12.4867 13.7629 12.5745C13.7458 12.6271 13.7392 12.6827 13.7436 12.7379C13.7479 12.7932 13.7631 12.847 13.7883 12.8963C13.8135 12.9457 13.8481 12.9896 13.8902 13.0256C13.9324 13.0616 13.9812 13.0889 14.0339 13.106C14.1403 13.1406 14.256 13.1315 14.3557 13.0807C14.4554 13.0299 14.5308 12.9416 14.5654 12.8352C14.5825 12.7825 14.5891 12.727 14.5848 12.6717C14.5804 12.6165 14.5652 12.5627 14.5401 12.5133C14.5149 12.4639 14.4803 12.42 14.4381 12.384C14.396 12.348 14.3472 12.3207 14.2945 12.3036C14.2582 12.2918 14.2205 12.285 14.1825 12.2834V12.2834ZM9.86325 13.5824C8.85122 13.5873 7.50825 14.3714 6.46838 15.079C7.36036 16.6807 8.92744 17.8523 10.7876 18.212C11.2559 16.6469 11.651 14.5268 10.6729 13.8162C10.4454 13.6509 10.1696 13.5809 9.86325 13.5824ZM14.1296 13.5833C13.8212 13.5833 13.5441 13.6544 13.3165 13.8197C12.3371 14.5313 12.7605 16.6372 13.2187 18.2108C15.079 17.8492 16.6456 16.6752 17.5358 15.0715C16.5043 14.3579 15.1483 13.5833 14.1296 13.5833V13.5833ZM12 13.8553C11.8881 13.8553 11.7808 13.8998 11.7017 13.9789C11.6226 14.058 11.5781 14.1653 11.5781 14.2772C11.5781 14.3891 11.6226 14.4964 11.7017 14.5755C11.7808 14.6546 11.8881 14.6991 12 14.6991C12.1119 14.6991 12.2192 14.6546 12.2983 14.5755C12.3774 14.4964 12.4219 14.3891 12.4219 14.2772C12.4219 14.1653 12.3774 14.058 12.2983 13.9789C12.2192 13.8998 12.1119 13.8553 12 13.8553Z" fill="black"/>
</g>
<defs>
<clipPath id="clip0_3178_3542">
<rect width="24" height="24" fill="white"/>
</clipPath>
</defs>
</svg>
