<svg width="24" height="24" viewBox="0 0 24 24" fill="none" xmlns="http://www.w3.org/2000/svg">
<path d="M17.5001 2C17.5001 1.80109 17.4211 1.61032 17.2804 1.46967C17.1398 1.32902 16.949 1.25 16.7501 1.25C16.5512 1.25 16.3604 1.32902 16.2198 1.46967C16.0791 1.61032 16.0001 1.80109 16.0001 2V3C16.0001 3.19891 16.0791 3.38968 16.2198 3.53033C16.3604 3.67098 16.5512 3.75 16.7501 3.75C16.949 3.75 17.1398 3.67098 17.2804 3.53033C17.4211 3.38968 17.5001 3.19891 17.5001 3V2ZM21.5301 2.47C21.3895 2.32955 21.1989 2.25066 21.0001 2.25066C20.8014 2.25066 20.6107 2.32955 20.4701 2.47L18.4701 4.47C18.3376 4.61217 18.2655 4.80022 18.2689 4.99452C18.2724 5.18882 18.3511 5.37421 18.4885 5.51162C18.6259 5.64903 18.8113 5.72775 19.0056 5.73117C19.1999 5.7346 19.3879 5.66248 19.5301 5.53L21.5301 3.53C21.6706 3.38937 21.7495 3.19875 21.7495 3C21.7495 2.80125 21.6706 2.61063 21.5301 2.47V2.47ZM8.03011 17.03L9.53011 15.53C9.6038 15.4613 9.6629 15.3785 9.70389 15.2865C9.74489 15.1945 9.76693 15.0952 9.76871 14.9945C9.77048 14.8938 9.75196 14.7938 9.71424 14.7004C9.67652 14.607 9.62037 14.5222 9.54915 14.451C9.47793 14.3797 9.3931 14.3236 9.29971 14.2859C9.20632 14.2482 9.10629 14.2296 9.00559 14.2314C8.90489 14.2332 8.80557 14.2552 8.71358 14.2962C8.62158 14.3372 8.53878 14.3963 8.47011 14.47L6.97011 15.97C6.89643 16.0387 6.83732 16.1215 6.79633 16.2135C6.75534 16.3055 6.7333 16.4048 6.73152 16.5055C6.72974 16.6062 6.74827 16.7062 6.78599 16.7996C6.82371 16.893 6.87986 16.9778 6.95107 17.049C7.02229 17.1203 7.10713 17.1764 7.20052 17.2141C7.2939 17.2518 7.39393 17.2704 7.49464 17.2686C7.59534 17.2668 7.69465 17.2448 7.78665 17.2038C7.87865 17.1628 7.96145 17.1037 8.03011 17.03ZM8.25011 6V10.69L3.03011 15.909C2.82118 16.1179 2.65544 16.366 2.54237 16.639C2.42929 16.9119 2.37109 17.2045 2.37109 17.5C2.37109 17.7955 2.42929 18.0881 2.54237 18.361C2.65544 18.634 2.82118 18.8821 3.03011 19.091L4.91011 20.97C5.11905 21.1789 5.36708 21.3447 5.64007 21.4577C5.91305 21.5708 6.20564 21.629 6.50111 21.629C6.79659 21.629 7.08917 21.5708 7.36216 21.4577C7.63514 21.3447 7.88318 21.1789 8.09211 20.97L13.3121 15.75H18.0001C18.199 15.7498 18.3896 15.6707 18.5301 15.53L20.4701 13.591C20.679 13.3821 20.8448 13.134 20.9579 12.861C21.0709 12.5881 21.1291 12.2955 21.1291 12C21.1291 11.7045 21.0709 11.4119 20.9579 11.139C20.8448 10.866 20.679 10.6179 20.4701 10.409L13.5901 3.53C13.3812 3.32107 13.1331 3.15533 12.8602 3.04225C12.5872 2.92918 12.2946 2.87098 11.9991 2.87098C11.7036 2.87098 11.4111 2.92918 11.1381 3.04225C10.8651 3.15533 10.617 3.32107 10.4081 3.53L8.46811 5.47C8.32815 5.61084 8.24976 5.80144 8.25011 6V6ZM11.4701 4.591C11.6107 4.45055 11.8014 4.37166 12.0001 4.37166C12.1989 4.37166 12.3895 4.45055 12.5301 4.591L19.4091 11.47C19.5496 11.6106 19.6285 11.8012 19.6285 12C19.6285 12.1988 19.5496 12.3894 19.4091 12.53L18.0001 13.94L10.0601 6L11.4701 4.591ZM9.75011 7.811L16.1901 14.25H13.3101L9.75011 10.69V7.81V7.811ZM9.00011 12.06L11.9401 15L7.03011 19.909C6.88949 20.0495 6.69886 20.1283 6.50011 20.1283C6.30136 20.1283 6.11074 20.0495 5.97011 19.909L4.09011 18.03C3.94966 17.8894 3.87077 17.6988 3.87077 17.5C3.87077 17.3012 3.94966 17.1106 4.09011 16.97L9.00011 12.06ZM21.0001 8H22.0001C22.199 8 22.3898 7.92098 22.5304 7.78033C22.6711 7.63968 22.7501 7.44891 22.7501 7.25C22.7501 7.05109 22.6711 6.86032 22.5304 6.71967C22.3898 6.57902 22.199 6.5 22.0001 6.5H21.0001C20.8012 6.5 20.6104 6.57902 20.4698 6.71967C20.3291 6.86032 20.2501 7.05109 20.2501 7.25C20.2501 7.44891 20.3291 7.63968 20.4698 7.78033C20.6104 7.92098 20.8012 8 21.0001 8V8Z" fill="black"/>
</svg>
