<svg width="30" height="30" viewBox="0 0 30 30" fill="none" xmlns="http://www.w3.org/2000/svg">
<path d="M15 3.75C8.75 3.75 3.75 8.75 3.75 15C3.75 21.25 8.75 26.25 15 26.25C21.25 26.25 26.25 21.25 26.25 15C26.25 8.75 21.25 3.75 15 3.75ZM15 23.75C10.125 23.75 6.25 19.875 6.25 15C6.25 10.125 10.125 6.25 15 6.25C19.875 6.25 23.75 10.125 23.75 15C23.75 19.875 19.875 23.75 15 23.75ZM25.625 25.625C28.375 22.875 30 19.125 30 15C30 10.875 28.375 7.125 25.625 4.375L24.25 5.75C26.625 8.125 28.125 11.375 28.125 15C28.125 18.625 26.625 21.875 24.25 24.25L25.625 25.625ZM5.75 24.25C3.375 21.875 1.875 18.625 1.875 15C1.875 11.375 3.375 8.125 5.75 5.75L4.375 4.375C1.625 7.125 0 10.875 0 15C0 19.125 1.625 22.875 4.375 25.625L5.75 24.25ZM19.125 13.125C19.95 13.125 20.625 13.9625 20.625 15C20.625 16.0125 19.9375 16.875 19.125 16.875C18.6625 16.875 18.325 16.6125 18.125 16.3875L18.0875 16.35L18.05 16.3125L16.725 15L18.0875 13.65L18.125 13.6125L18.1625 13.575C18.425 13.2875 18.75 13.125 19.125 13.125M10.875 13.125C11.3375 13.125 11.675 13.3875 11.875 13.6V13.65L11.95 13.6875L13.275 15L11.9125 16.35L11.875 16.3875L11.8375 16.4375C11.575 16.7125 11.25 16.875 10.875 16.875C10.0625 16.875 9.375 16.0125 9.375 15C9.375 13.9875 10.0625 13.125 10.875 13.125M19.125 11.25C18.225 11.25 17.375 11.6375 16.775 12.3125L15 14.0625L13.2625 12.35C12.625 11.6375 11.775 11.25 10.875 11.25C9.0125 11.25 7.5 12.9375 7.5 15C7.5 17.0625 9.0125 18.75 10.875 18.75C11.775 18.75 12.625 18.3625 13.2375 17.6875L15 15.9375L16.7375 17.65C17.375 18.35 18.225 18.75 19.125 18.75C20.9875 18.75 22.5 17.0625 22.5 15C22.5 12.9125 20.9875 11.25 19.125 11.25V11.25Z" fill="black"/>
</svg>
