<svg width="35" height="35" viewBox="0 0 35 35" fill="none" xmlns="http://www.w3.org/2000/svg">
<path d="M17.4999 2.91666C18.2734 2.91666 19.0153 3.22395 19.5623 3.77094C20.1092 4.31792 20.4165 5.05978 20.4165 5.83333C20.4165 7.45208 19.1186 8.75 17.4999 8.75C16.7263 8.75 15.9845 8.44271 15.4375 7.89573C14.8905 7.34874 14.5832 6.60688 14.5832 5.83333C14.5832 5.05978 14.8905 4.31792 15.4375 3.77094C15.9845 3.22395 16.7263 2.91666 17.4999 2.91666ZM18.0686 21.5687C20.1402 21.5607 22.2102 21.6824 24.2665 21.9333C24.354 17.9667 24.004 14.4667 23.3332 13.125C23.1436 12.7312 22.8811 12.3958 22.604 12.1042L10.8353 22.1958C12.8186 21.875 15.3124 21.5687 18.0686 21.5687M10.879 24.7917C11.0686 27.3292 11.4478 29.8958 12.0603 32.0833H15.079C14.6561 30.8 14.3499 29.2979 14.1165 27.7083C14.1165 27.7083 17.4999 27.0667 20.8832 27.7083C20.6499 29.2979 20.3436 30.8 19.9207 32.0833H22.9395C23.5811 29.8229 23.9603 27.1396 24.1499 24.4854C22.132 24.2414 20.1012 24.1197 18.0686 24.1208C15.254 24.1208 12.804 24.4271 10.879 24.7917M17.4999 10.2083C17.4999 10.2083 13.1249 10.2083 11.6665 13.125C11.1707 14.1167 10.8499 16.2604 10.7478 18.9L20.2999 10.7042C18.8561 10.2083 17.4999 10.2083 17.4999 10.2083ZM27.0811 8.26875L25.4186 6.32916L20.2999 10.7187C21.102 10.9958 21.9478 11.4333 22.604 12.1042L27.0811 8.26875M30.1436 23.0854C30.0124 23.0417 27.9124 22.3562 24.2665 21.9333C24.252 22.7646 24.2082 23.625 24.1499 24.4854C27.4311 24.8937 29.3124 25.5208 29.3415 25.5208L30.1436 23.0854M10.7478 18.9L5.00195 23.8292L6.29987 25.9875C6.32904 25.9729 8.0207 25.3167 10.879 24.7917C10.7186 22.7354 10.6749 20.7083 10.7478 18.9Z" fill="black"/>
</svg>
