<svg width="35" height="35" viewBox="0 0 35 35" fill="none" xmlns="http://www.w3.org/2000/svg">
<path d="M17.5 1.70898C8.77051 1.70898 1.70898 8.77051 1.70898 17.5C1.70898 26.2295 8.77051 33.291 17.5 33.291C26.2295 33.291 33.291 26.2295 33.291 17.5C33.291 8.77051 26.2295 1.70898 17.5 1.70898ZM17.5 3.75977C25.0811 3.75977 31.2402 9.91895 31.2402 17.5C31.2402 25.0811 25.0811 31.2402 17.5 31.2402C9.91895 31.2402 3.75977 25.0811 3.75977 17.5C3.75977 9.91895 9.91895 3.75977 17.5 3.75977ZM5.5043 13.9385C5.18232 15.251 4.99023 16.4678 4.99023 17.6299C14.8818 19.7012 13.2959 21.8955 15.1074 29.7842C15.8867 29.9277 16.6797 30.0098 17.5 30.0098C18.3203 30.0098 19.1133 29.9277 19.8926 29.7842C21.7041 21.8955 20.1182 19.7012 30.0098 17.6299C29.9687 16.3379 29.8047 15.0049 29.4971 13.9385C23.7002 12.4893 20.583 11.7578 17.5 11.7578C14.417 11.7578 11.2998 12.4893 5.5043 13.9385V13.9385ZM17.5 12.5098C20.248 12.5098 22.4902 14.752 22.4902 17.5C22.4902 20.248 20.248 22.4902 17.5 22.4902C14.752 22.4902 12.5098 20.248 12.5098 17.5C12.5098 14.752 14.752 12.5098 17.5 12.5098ZM17.5 13.7402C15.415 13.7402 13.7402 15.415 13.7402 17.5C13.7402 19.585 15.415 21.2598 17.5 21.2598C19.585 21.2598 21.2598 19.585 21.2598 17.5C21.2598 15.415 19.585 13.7402 17.5 13.7402Z" fill="black"/>
</svg>
