<svg width="24" height="24" viewBox="0 0 24 24" fill="none" xmlns="http://www.w3.org/2000/svg">
<path d="M22.6304 15.5L20.2104 5.85C20.1517 5.61744 20.0113 5.41375 19.8149 5.27607C19.6184 5.13839 19.3791 5.0759 19.1404 5.1C17.8004 5.24 14.1404 5.5 12.0004 5.5C9.86042 5.5 6.20042 5.24 4.86042 5.1C4.62177 5.0759 4.38241 5.13839 4.18599 5.27607C3.98957 5.41375 3.84918 5.61744 3.79042 5.85L1.37042 15.5C1.3174 15.7 1.30631 15.9087 1.33785 16.1132C1.36939 16.3176 1.44288 16.5133 1.5537 16.688C1.66452 16.8627 1.81028 17.0126 1.98181 17.1282C2.15333 17.2439 2.34693 17.3228 2.55042 17.36C5.67929 17.8159 8.83866 18.0299 12.0004 18C15.1622 18.0299 18.3216 17.8159 21.4504 17.36C21.6539 17.3228 21.8475 17.2439 22.019 17.1282C22.1906 17.0126 22.3363 16.8627 22.4471 16.688C22.558 16.5133 22.6315 16.3176 22.663 16.1132C22.6945 15.9087 22.6834 15.7 22.6304 15.5M12.0004 16C9.13907 16.0269 6.27919 15.8599 3.44042 15.5L5.50042 7.18C7.00042 7.32 10.1604 7.5 12.0004 7.5C13.8404 7.5 17.0004 7.32 18.5004 7.18L20.5604 15.5C17.7217 15.8599 14.8618 16.0269 12.0004 16V16Z" fill="black"/>
</svg>
