<svg width="32" height="32" viewBox="0 0 32 32" fill="none" xmlns="http://www.w3.org/2000/svg">
<path d="M26 16C25.9998 14.391 25.6086 12.8062 24.86 11.382L23.365 12.878C23.7852 13.8651 24.0012 14.9271 24 16H26ZM23.414 9.99999L22 8.58599L17.285 13.3C16.8846 13.1048 16.4454 13.0022 16 13C15.4067 13 14.8266 13.1759 14.3333 13.5056C13.84 13.8352 13.4554 14.3038 13.2284 14.8519C13.0013 15.4001 12.9419 16.0033 13.0577 16.5853C13.1734 17.1672 13.4591 17.7018 13.8787 18.1213C14.2982 18.5409 14.8328 18.8266 15.4147 18.9423C15.9967 19.0581 16.5999 18.9987 17.1481 18.7716C17.6962 18.5446 18.1648 18.1601 18.4944 17.6667C18.8241 17.1734 19 16.5933 19 16C18.9978 15.5546 18.8952 15.1154 18.7 14.715L23.414 9.99999ZM16 17C15.8022 17 15.6089 16.9413 15.4444 16.8315C15.28 16.7216 15.1518 16.5654 15.0761 16.3827C15.0004 16.2 14.9806 15.9989 15.0192 15.8049C15.0578 15.6109 15.1531 15.4327 15.2929 15.2929C15.4328 15.153 15.6109 15.0578 15.8049 15.0192C15.9989 14.9806 16.2 15.0004 16.3827 15.0761C16.5654 15.1518 16.7216 15.28 16.8315 15.4444C16.9414 15.6089 17 15.8022 17 16C16.9997 16.2651 16.8943 16.5193 16.7068 16.7068C16.5193 16.8943 16.2651 16.9997 16 17ZM16 7.99999C17.0729 7.99889 18.1348 8.21489 19.122 8.63499L20.618 7.13899C19.095 6.34154 17.3918 5.95081 15.6735 6.00462C13.9551 6.05843 12.2797 6.55496 10.8096 7.44614C9.33937 8.33732 8.12417 9.59297 7.28158 11.0915C6.43899 12.5901 5.99755 14.2808 6.00001 16H8.00001C8.00266 13.8791 8.84636 11.8458 10.3461 10.3461C11.8458 8.84634 13.8791 8.00264 16 7.99999V7.99999Z" fill="black"/>
<path d="M16 30C13.2311 30 10.5243 29.1789 8.22202 27.6406C5.91973 26.1022 4.12532 23.9157 3.06569 21.3576C2.00607 18.7994 1.72882 15.9845 2.26901 13.2687C2.80921 10.553 4.14258 8.05845 6.10051 6.10051C8.05845 4.14258 10.553 2.80921 13.2687 2.26901C15.9845 1.72882 18.7994 2.00607 21.3576 3.06569C23.9157 4.12532 26.1022 5.91973 27.6406 8.22202C29.1789 10.5243 30 13.2311 30 16C29.9958 19.7117 28.5194 23.2702 25.8948 25.8948C23.2702 28.5194 19.7117 29.9958 16 30V30ZM16 4.00001C13.6266 4.00001 11.3066 4.70379 9.33316 6.02237C7.35977 7.34095 5.8217 9.21509 4.91345 11.4078C4.0052 13.6005 3.76756 16.0133 4.23058 18.3411C4.69361 20.6689 5.83649 22.8071 7.51472 24.4853C9.19295 26.1635 11.3312 27.3064 13.6589 27.7694C15.9867 28.2325 18.3995 27.9948 20.5922 27.0866C22.7849 26.1783 24.6591 24.6402 25.9776 22.6668C27.2962 20.6935 28 18.3734 28 16C27.9963 12.8185 26.7308 9.76845 24.4812 7.51882C22.2316 5.26918 19.1815 4.00371 16 4.00001V4.00001Z" fill="black"/>
</svg>
